<svg width="22" height="22" viewBox="0 0 22 22" fill="none" xmlns="http://www.w3.org/2000/svg">
<path d="M12.7737 21.8568C12.6821 21.8717 12.5901 21.8855 12.4978 21.8981C12.5901 21.8855 12.6821 21.8717 12.7737 21.8568Z" fill="#63B3ED"/>
<path d="M12.9937 21.8192C12.9499 21.8273 12.9061 21.8347 12.8623 21.8422C12.9061 21.8347 12.9499 21.8273 12.9937 21.8192Z" fill="#63B3ED"/>
<path d="M12.2519 21.9286C12.1447 21.9407 12.0367 21.9514 11.9285 21.9605C12.0367 21.9514 12.1447 21.9407 12.2519 21.9286Z" fill="#63B3ED"/>
<path d="M12.4632 21.9028C12.4117 21.9097 12.3598 21.9161 12.3081 21.9221C12.3598 21.9161 12.4117 21.9097 12.4632 21.9028Z" fill="#63B3ED"/>
<path d="M13.2932 21.7599C13.2545 21.7681 13.2158 21.7763 13.177 21.7842C13.2158 21.7763 13.2545 21.7681 13.2932 21.7599Z" fill="#63B3ED"/>
<path d="M14.0365 21.5752C14.0053 21.5841 13.9741 21.5925 13.9429 21.6012C13.9741 21.5925 14.0053 21.5841 14.0365 21.5752Z" fill="#63B3ED"/>
<path d="M13.8118 21.6366C13.7779 21.6455 13.7438 21.6546 13.7097 21.6631C13.7438 21.6546 13.7779 21.6457 13.8118 21.6366Z" fill="#63B3ED"/>
<path d="M13.5176 21.7101C13.4817 21.7185 13.4454 21.7264 13.4092 21.7344C13.4454 21.7264 13.4817 21.7185 13.5176 21.7101Z" fill="#63B3ED"/>
<path d="M11.9249 21.9608C11.867 21.9657 11.8091 21.97 11.751 21.9739C11.8091 21.97 11.867 21.9657 11.9249 21.9608Z" fill="#63B3ED"/>
<path d="M22 11C22 4.9258 17.0742 0 11 0C4.9258 0 0 4.9258 0 11C0 17.0742 4.9258 22 11 22C11.0646 22 11.1289 21.9987 11.1934 21.9975V13.4344H8.83008V10.6803H11.1934V8.6535C11.1934 6.30298 12.6283 5.02365 14.725 5.02365C15.7291 5.02365 16.5921 5.09851 16.8438 5.13191V7.58852H15.3979C14.2572 7.58852 14.0363 8.13066 14.0363 8.92609V10.6803H16.7639L16.4084 13.4344H14.0363V21.575C18.6342 20.2569 22 16.021 22 11Z" fill="#63B3ED"/>
<path d="M11.7268 21.9755C11.6124 21.9828 11.4974 21.9887 11.3821 21.9926C11.4974 21.9887 11.6124 21.9828 11.7268 21.9755Z" fill="#63B3ED"/>
<path d="M11.3762 21.993C11.3155 21.9951 11.2545 21.9966 11.1936 21.9976C11.2545 21.9966 11.3155 21.9951 11.3762 21.993Z" fill="#63B3ED"/>
</svg>
