<svg width="27" height="25" viewBox="0 0 27 25" fill="none" xmlns="http://www.w3.org/2000/svg">
<path d="M15.6768 24.8374C15.5643 24.8544 15.4514 24.87 15.3381 24.8843C15.4514 24.87 15.5643 24.8544 15.6768 24.8374Z" fill="#3B50BB"/>
<path d="M15.9461 24.7947C15.8926 24.8038 15.8391 24.8122 15.7856 24.8208C15.8391 24.8122 15.8926 24.8038 15.9461 24.7947Z" fill="#3B50BB"/>
<path d="M15.0364 24.9189C14.9047 24.9327 14.7723 24.9449 14.6394 24.9552C14.7723 24.9449 14.9047 24.9327 15.0364 24.9189Z" fill="#3B50BB"/>
<path d="M15.2948 24.8896C15.2319 24.8975 15.1686 24.9047 15.1055 24.9116C15.1686 24.9047 15.2319 24.8975 15.2948 24.8896Z" fill="#3B50BB"/>
<path d="M16.3137 24.7271C16.2665 24.7364 16.2192 24.7457 16.1719 24.7547C16.2192 24.7457 16.2665 24.7364 16.3137 24.7271Z" fill="#3B50BB"/>
<path d="M17.2259 24.5173C17.1878 24.5274 17.1497 24.537 17.1116 24.5469C17.1497 24.537 17.1878 24.5274 17.2259 24.5173Z" fill="#3B50BB"/>
<path d="M16.95 24.5872C16.9086 24.5973 16.867 24.6076 16.8254 24.6173C16.867 24.6076 16.9086 24.5975 16.95 24.5872Z" fill="#3B50BB"/>
<path d="M16.5889 24.6704C16.5451 24.6799 16.5008 24.6889 16.4565 24.6981C16.5008 24.6889 16.5451 24.6799 16.5889 24.6704Z" fill="#3B50BB"/>
<path d="M14.635 24.9556C14.564 24.9611 14.4929 24.9661 14.4216 24.9704C14.4929 24.9661 14.564 24.9611 14.635 24.9556Z" fill="#3B50BB"/>
<path d="M27 12.5C27 5.5975 20.9547 0 13.5 0C6.0453 0 0 5.5975 0 12.5C0 19.4025 6.0453 25 13.5 25C13.5793 25 13.6582 24.9985 13.7373 24.9971V15.2664H10.8369V12.1367H13.7373V9.83353C13.7373 7.16248 15.4983 5.70869 18.0716 5.70869C19.3039 5.70869 20.3631 5.79376 20.6719 5.83172V8.62331H18.8974C17.4975 8.62331 17.2264 9.23939 17.2264 10.1433V12.1367H20.5738L20.1375 15.2664H17.2264V24.5171C22.8692 23.0192 27 18.2056 27 12.5Z" fill="#3B50BB"/>
<path d="M14.3921 24.9722C14.2516 24.9806 14.1105 24.9872 13.969 24.9916C14.1105 24.9872 14.2516 24.9806 14.3921 24.9722Z" fill="#3B50BB"/>
<path d="M13.9617 24.9922C13.8871 24.9941 13.8123 24.9955 13.7375 24.9965C13.8123 24.9955 13.8871 24.9941 13.9617 24.9922Z" fill="#3B50BB"/>
</svg>
