<svg width="22" height="22" viewBox="0 0 22 22" fill="none" xmlns="http://www.w3.org/2000/svg">
<path d="M11 0C6.45068 0 2.75 3.70111 2.75 8.25C2.75 14.3364 10.3617 21.5703 10.6858 21.8756C10.7744 21.9584 10.8872 22 11 22C11.1128 22 11.2256 21.9584 11.3142 21.8756C11.6383 21.5703 19.25 14.3364 19.25 8.25C19.25 3.70111 15.5493 0 11 0ZM11 12.8333C8.47288 12.8333 6.41665 10.7771 6.41665 8.25C6.41665 5.72288 8.47292 3.66665 11 3.66665C13.5271 3.66665 15.5833 5.72292 15.5833 8.25C15.5833 10.7771 13.5271 12.8333 11 12.8333Z" fill="#63B3ED"/>
</svg>
