<svg width="133" height="74" viewBox="0 0 133 74" fill="none" xmlns="http://www.w3.org/2000/svg">
<g filter="url(#filter0_d)">
<path d="M4.37078 14.908H10.7667L14.4281 39.3794H14.5208L18.414 14.908H24.8099L28.7031 39.3794H28.7958L32.4572 14.908H38.8532L32.828 48H25.3661L21.6583 23.9921H21.5656L17.8578 48H10.3959L4.37078 14.908ZM44.2649 31.454C44.2186 33.6787 44.3113 35.5789 44.404 37.1547C44.4967 38.7305 44.7284 39.9819 45.0528 40.9552C45.3773 41.9285 45.8408 42.6237 46.4433 43.0872C47.0458 43.5507 47.8337 43.736 48.8533 43.736C49.8266 43.736 50.6145 43.5507 51.217 43.0872C51.8196 42.6237 52.283 41.9285 52.6075 40.9552C52.9319 39.9819 53.1636 38.7305 53.2563 37.1547C53.349 35.5789 53.4417 33.6787 53.4417 31.454C53.4417 29.2293 53.349 27.3754 53.2563 25.7996C53.1636 24.2702 52.9319 23.0188 52.6075 21.9992C52.283 21.0259 51.8196 20.3307 51.217 19.8672C50.6145 19.4037 49.8266 19.172 48.8533 19.172C47.8337 19.172 47.0458 19.4037 46.4433 19.8672C45.8408 20.3307 45.3773 21.0259 45.0528 21.9992C44.7284 23.0188 44.4967 24.2702 44.404 25.7996C44.3113 27.3754 44.2649 29.2293 44.2649 31.454ZM37.5909 31.454C37.5909 28.9513 37.6836 26.6802 37.9154 24.5483C38.1471 22.4163 38.6569 20.6087 39.4448 19.0793C40.2327 17.5962 41.3914 16.3911 42.8745 15.5569C44.3576 14.7226 46.3506 14.3055 48.8533 14.2592C51.3561 14.2592 53.349 14.7226 54.8321 15.5569C56.3152 16.3911 57.4276 17.5962 58.2155 19.0793C59.0034 20.6087 59.5132 22.4163 59.7449 24.5483C59.9767 26.6802 60.1157 28.9513 60.1157 31.454C60.1157 34.0031 59.9767 36.3205 59.7449 38.4061C59.5132 40.5381 59.0034 42.3456 58.2155 43.8287C57.4276 45.3582 56.3152 46.5169 54.8321 47.3048C53.349 48.139 51.3561 48.5098 48.8533 48.5098C46.3506 48.5098 44.3576 48.139 42.8745 47.3048C41.3914 46.5169 40.2327 45.3582 39.4448 43.8287C38.6569 42.3456 38.1471 40.5381 37.9154 38.4061C37.6836 36.3205 37.5909 34.0031 37.5909 31.454ZM66.7742 31.454C66.7278 33.6787 66.8205 35.5789 66.9132 37.1547C67.0059 38.7305 67.2376 39.9819 67.5621 40.9552C67.8865 41.9285 68.35 42.6237 68.9525 43.0872C69.555 43.5507 70.3429 43.736 71.3625 43.736C72.3358 43.736 73.1237 43.5507 73.7263 43.0872C74.3288 42.6237 74.7922 41.9285 75.1167 40.9552C75.4411 39.9819 75.6728 38.7305 75.7655 37.1547C75.8582 35.5789 75.9509 33.6787 75.9509 31.454C75.9509 29.2293 75.8582 27.3754 75.7655 25.7996C75.6728 24.2702 75.4411 23.0188 75.1167 21.9992C74.7922 21.0259 74.3288 20.3307 73.7263 19.8672C73.1237 19.4037 72.3358 19.172 71.3625 19.172C70.3429 19.172 69.555 19.4037 68.9525 19.8672C68.35 20.3307 67.8865 21.0259 67.5621 21.9992C67.2376 23.0188 67.0059 24.2702 66.9132 25.7996C66.8205 27.3754 66.7742 29.2293 66.7742 31.454ZM60.1002 31.454C60.1002 28.9513 60.1928 26.6802 60.4246 24.5483C60.6563 22.4163 61.1661 20.6087 61.954 19.0793C62.7419 17.5962 63.9006 16.3911 65.3837 15.5569C66.8669 14.7226 68.8598 14.3055 71.3625 14.2592C73.8653 14.2592 75.8582 14.7226 77.3414 15.5569C78.8245 16.3911 79.9368 17.5962 80.7247 19.0793C81.5126 20.6087 82.0224 22.4163 82.2542 24.5483C82.4859 26.6802 82.6249 28.9513 82.6249 31.454C82.6249 34.0031 82.4859 36.3205 82.2542 38.4061C82.0224 40.5381 81.5126 42.3456 80.7247 43.8287C79.9368 45.3582 78.8245 46.5169 77.3414 47.3048C75.8582 48.139 73.8653 48.5098 71.3625 48.5098C68.8598 48.5098 66.8669 48.139 65.3837 47.3048C63.9006 46.5169 62.7419 45.3582 61.954 43.8287C61.1661 42.3456 60.6563 40.5381 60.4246 38.4061C60.1928 36.3205 60.1002 34.0031 60.1002 31.454ZM90.303 43.0872H93.2693C94.4279 43.0872 95.3549 42.9018 96.0964 42.4847C96.7917 42.1139 97.3478 41.4187 97.7649 40.4917C98.1821 39.5648 98.4602 38.3598 98.5992 36.8303C98.7382 35.3472 98.8309 33.4469 98.8309 31.1759C98.8309 29.322 98.7382 27.6535 98.6455 26.2168C98.5065 24.8263 98.2284 23.6213 97.8576 22.6944C97.4869 21.7674 96.8843 21.0259 96.1428 20.5624C95.4012 20.0989 94.3816 19.8672 93.1302 19.8208H90.303V43.0872ZM83.629 14.908H94.567C96.8843 14.908 98.7382 15.3251 100.175 16.0667C101.565 16.8083 102.678 17.9206 103.466 19.311C104.254 20.7014 104.81 22.4163 105.088 24.3629C105.366 26.3558 105.505 28.5805 105.505 30.9905C105.505 33.9104 105.32 36.4595 104.949 38.5915C104.578 40.7235 103.975 42.4847 103.141 43.8751C102.261 45.2655 101.102 46.3315 99.6652 46.9804C98.1821 47.6756 96.3745 48 94.1499 48H83.629V14.908ZM112.05 37.6646V38.6378C112.05 39.4257 112.096 40.121 112.235 40.7698C112.328 41.4187 112.56 41.9285 112.931 42.3456C113.255 42.8091 113.719 43.1335 114.275 43.3653C114.831 43.6434 115.572 43.736 116.453 43.736C117.473 43.736 118.353 43.4116 119.188 42.7628C120.022 42.1139 120.393 41.0479 120.439 39.6575C120.439 38.9159 120.3 38.3134 120.114 37.7572C119.929 37.2011 119.605 36.7376 119.141 36.2741C118.678 35.857 118.029 35.4862 117.287 35.1154C116.546 34.7447 115.619 34.4202 114.506 34.0031C113.023 33.5396 111.726 32.9835 110.66 32.381C109.547 31.8248 108.667 31.1296 107.925 30.3417C107.184 29.5538 106.674 28.6268 106.349 27.6072C105.979 26.5875 105.84 25.3825 105.84 23.9921C105.84 20.7478 106.72 18.2914 108.574 16.6692C110.382 15.0934 112.884 14.2592 116.082 14.2592C117.565 14.2592 118.909 14.4445 120.161 14.769C121.412 15.0934 122.478 15.6032 123.405 16.3448C124.332 17.0863 125.027 18.0133 125.537 19.1256C126.047 20.238 126.325 21.582 126.325 23.1578V24.0848H119.929C119.929 22.5553 119.651 21.304 119.095 20.4697C118.539 19.6354 117.612 19.2183 116.314 19.172C115.572 19.172 114.924 19.311 114.46 19.4964C113.95 19.7281 113.533 20.0062 113.255 20.377C112.977 20.7478 112.745 21.1186 112.653 21.582C112.56 22.0455 112.514 22.5553 112.514 23.0188C112.514 24.0384 112.699 24.919 113.162 25.6143C113.58 26.3095 114.506 26.9583 115.943 27.5145L121.088 29.7392C122.339 30.2953 123.359 30.8978 124.193 31.5004C124.981 32.1029 125.63 32.7517 126.093 33.4469C126.557 34.1422 126.928 34.8837 127.113 35.718C127.298 36.5522 127.391 37.4792 127.391 38.4988C127.391 42.0212 126.371 44.5703 124.332 46.1461C122.293 47.7219 119.512 48.5098 115.897 48.5098C112.096 48.5098 109.408 47.7219 107.786 46.0534C106.164 44.4313 105.376 42.0675 105.376 39.0086V37.6646H112.05Z" fill="#4A5568"/>
<path d="M12.2498 65.1946C14.4929 65.1946 16.0767 63.9835 16.4422 61.9698H15.4604C15.1522 63.403 13.9053 64.2845 12.257 64.2845C10.0569 64.2845 8.64518 62.5574 8.64518 59.8342C8.64518 57.1468 10.0569 55.4341 12.2498 55.4341C13.8551 55.4341 15.1737 56.4804 15.4604 57.9709H16.4422C16.1627 55.95 14.4356 54.5239 12.2498 54.5239C9.44064 54.5239 7.6419 56.595 7.6419 59.8342C7.6419 63.1092 9.43348 65.1946 12.2498 65.1946ZM31.3668 65.0298H32.3987L28.5361 54.6888H27.5614L23.6916 65.0298H24.7307L25.8773 61.8623H30.2201L31.3668 65.0298ZM28.0272 55.8999H28.0702L29.9263 61.0166H26.1712L28.0272 55.8999ZM41.1101 65.0298V56.3872H41.1603L47.2445 65.0298H48.1904V54.6888H47.223V63.3242H47.1728L41.1101 54.6888H40.1426V65.0298H41.1101ZM66.3514 54.6888V65.0298H69.7052C72.8082 65.0298 74.607 63.1307 74.607 59.8557C74.607 56.5878 72.801 54.6888 69.7052 54.6888H66.3514ZM67.3331 55.5774H69.6479C72.1919 55.5774 73.6108 57.111 73.6108 59.8629C73.6108 62.6076 72.1919 64.1412 69.6479 64.1412H67.3331V55.5774ZM87.009 54.5239C84.1282 54.5239 82.3151 56.5878 82.3151 59.8629C82.3151 63.1379 84.1282 65.1946 87.009 65.1946C89.8971 65.1946 91.7101 63.1379 91.7101 59.8629C91.7101 56.5878 89.8899 54.5239 87.009 54.5239ZM87.009 55.4341C89.2736 55.4341 90.7068 57.1468 90.7068 59.8629C90.7068 62.5717 89.2736 64.2845 87.009 64.2845C84.7445 64.2845 83.3184 62.5717 83.3184 59.8629C83.3184 57.1468 84.7445 55.4341 87.009 55.4341ZM110.43 65.0298V54.6888H109.455V65.0298H110.43ZM122.667 65.0298V55.5774H126.086V54.6888H118.274V55.5774H121.685V65.0298H122.667Z" fill="#4A5568"/>
</g>
<defs>
<filter id="filter0_d" x="0.37085" y="14.2593" width="131.02" height="58.9353" filterUnits="userSpaceOnUse" color-interpolation-filters="sRGB">
<feFlood flood-opacity="0" result="BackgroundImageFix"/>
<feColorMatrix in="SourceAlpha" type="matrix" values="0 0 0 0 0 0 0 0 0 0 0 0 0 0 0 0 0 0 127 0"/>
<feOffset dy="4"/>
<feGaussianBlur stdDeviation="2"/>
<feColorMatrix type="matrix" values="0 0 0 0 0 0 0 0 0 0 0 0 0 0 0 0 0 0 0.25 0"/>
<feBlend mode="normal" in2="BackgroundImageFix" result="effect1_dropShadow"/>
<feBlend mode="normal" in="SourceGraphic" in2="effect1_dropShadow" result="shape"/>
</filter>
</defs>
</svg>
