<svg width="26" height="26" viewBox="0 0 26 26" fill="none" xmlns="http://www.w3.org/2000/svg">
<path d="M23.7149 3.09766H2.28516C1.9334 3.09766 1.60409 3.18414 1.30615 3.32668L12.9492 14.9698L15.5588 12.4618C15.5588 12.4618 15.559 12.4616 15.5591 12.4615C15.5591 12.4614 15.5593 12.4613 15.5593 12.4613L24.6942 3.32688C24.3962 3.18424 24.0667 3.09766 23.7149 3.09766Z" fill="#2C5282"/>
<path d="M25.7712 4.4043L17.1748 13.0002L25.7709 21.5963C25.9134 21.2984 25.9999 20.9691 25.9999 20.6173V5.38295C25.9999 5.03139 25.9137 4.70213 25.7712 4.4043Z" fill="#2C5282"/>
<path d="M0.229023 4.40381C0.0864805 4.70174 0 5.03106 0 5.38282V20.6172C0 20.9688 0.0863789 21.2981 0.22882 21.596L8.82522 13L0.229023 4.40381Z" fill="#2C5282"/>
<path d="M16.0981 14.0773L13.4882 16.5855C13.3394 16.7343 13.1445 16.8087 12.9496 16.8087C12.7548 16.8087 12.5598 16.7343 12.4111 16.5855L9.90271 14.0771L1.30615 22.6731C1.60414 22.8158 1.93366 22.9024 2.28552 22.9024H23.7152C24.067 22.9024 24.3963 22.8159 24.6942 22.6733L16.0981 14.0773Z" fill="#2C5282"/>
<rect x="0.5" y="0.5" width="25" height="25" stroke="white"/>
</svg>
