<svg width="22" height="22" viewBox="0 0 22 22" fill="none" xmlns="http://www.w3.org/2000/svg">
<g clip-path="url(#clip0)">
<path d="M9.10972 12.89C7.00986 10.7902 6.53572 8.69031 6.42875 7.849C6.39886 7.61637 6.47892 7.38309 6.64534 7.21782L8.34465 5.51927C8.59462 5.26946 8.63898 4.88013 8.45162 4.58048L5.746 0.379239C5.53871 0.0474371 5.11309 -0.0723136 4.7632 0.102722L0.41972 2.14834C0.136776 2.28767 -0.029647 2.58829 0.00247809 2.90203C0.230064 5.0641 1.17265 10.379 6.39575 15.6025C11.6189 20.826 16.933 21.7682 19.0962 21.9958C19.4099 22.0279 19.7106 21.8615 19.8499 21.5785L21.8955 17.235C22.0699 16.8859 21.9509 16.4614 21.6205 16.2538L17.4193 13.5489C17.1198 13.3613 16.7305 13.4054 16.4805 13.6551L14.7819 15.3544C14.6167 15.5208 14.3834 15.6009 14.1508 15.571C13.3094 15.464 11.2096 14.9899 9.10972 12.89Z" fill="#63B3ED"/>
<path d="M17.4479 11.7585C17.0289 11.7585 16.6892 11.4188 16.6892 10.9999C16.6857 7.85902 14.1404 5.31376 10.9996 5.31021C10.5806 5.31021 10.241 4.97056 10.241 4.55159C10.241 4.13261 10.5806 3.79297 10.9996 3.79297C14.978 3.79736 18.2021 7.02142 18.2065 10.9999C18.2065 11.4188 17.8668 11.7585 17.4479 11.7585Z" fill="#63B3ED"/>
<path d="M21.241 11.7586C20.822 11.7586 20.4824 11.419 20.4824 11C20.4765 5.76524 16.2344 1.52309 10.9996 1.51724C10.5806 1.51724 10.241 1.1776 10.241 0.758621C10.241 0.339646 10.5806 0 10.9996 0C17.072 0.00668947 21.9929 4.92764 21.9996 11C21.9996 11.2012 21.9197 11.3942 21.7774 11.5364C21.6352 11.6787 21.4422 11.7586 21.241 11.7586Z" fill="#63B3ED"/>
</g>
<defs>
<clipPath id="clip0">
<rect width="22" height="22" fill="white"/>
</clipPath>
</defs>
</svg>
